<svg xmlns="http://www.w3.org/2000/svg" height="150" width="100" viewBox="0 0 100 100"><defs><style>.cls-2{fill:#fff}</style></defs><path fill="#1ea34a" d="M83.22 30.77v4.66c0 8.45-5.57 17-11 25.56l-1 1.65c-.95 1.49-1.87 3-2.76 4.48l-.91 1.57c-.2.35-.4.7-.59 1-.61 1.15-2 2.38-2.66 3.61-1.06 1.85-2.28 3.79-3.34 5.72-3.83 6.56-7.81 13.47-11.8 20.24-5.95-9.51-11.96-19.07-17.71-28.77l-.92-1.56L30 68c-1.06-1.8-2.18-3.64-3.32-5.47l-2.46-4c-4.24-6.93-8.18-14-9-20.73-.14-.8-.22-2.36-.22-2.54V31C17.24 10.35 33.7.33 48.67.33 59.85.33 73.68 5.78 80 21a29.94 29.94 0 0 1 1.59 4c.11.22 1.63 4.54 1.63 5.77z"/><path d="M41.4 62.22a2 2 0 0 1-2-2V25.38l.39-.53c.08-.11 8.51-11.17 25.31-.87a2 2 0 1 1-2.1 3.41c-11.81-7.24-18.08-2.2-19.63-.6v33.44a2 2 0 0 1-1.97 1.99z" class="cls-2"/><path d="M72.22 61l-1 1.65a6.3 6.3 0 0 1-2.86-1.74 4 4 0 0 0-6.13 0 5.75 5.75 0 0 1-8.57 0 4 4 0 0 0-6.13 0 5.74 5.74 0 0 1-8.56 0 4 4 0 0 0-6.13 0 5.78 5.78 0 0 1-4.28 1.91 5.66 5.66 0 0 1-1.86-.3l-2.46-4a9.45 9.45 0 0 1 1.27 1 4 4 0 0 0 6.12 0 5.73 5.73 0 0 1 8.57 0 4 4 0 0 0 6.13 0 5.72 5.72 0 0 1 8.56 0 4 4 0 0 0 6.13 0 5.73 5.73 0 0 1 8.57 0A4.12 4.12 0 0 0 72.22 61zM68.41 67.13l-.91 1.57a3.41 3.41 0 0 0-2.26-.76 4 4 0 0 0-3.06 1.44 5.73 5.73 0 0 1-8.57 0 4 4 0 0 0-6.13 0 5.72 5.72 0 0 1-8.56 0l-.32-.28a.9.9 0 1 1 1.21-1.35l.34.31a4 4 0 0 0 6.13 0 5.72 5.72 0 0 1 8.56 0 4 4 0 0 0 6.13 0 5.76 5.76 0 0 1 4.28-1.92 5.17 5.17 0 0 1 3.16.99zM37.84 67.36a.9.9 0 0 1-1.08.68 4.21 4.21 0 0 0-.9-.09 4 4 0 0 0-3.06 1.44 9.42 9.42 0 0 1-1.36 1.1l-.92-1.56a7.91 7.91 0 0 0 1-.86 5.76 5.76 0 0 1 4.28-1.92 5.84 5.84 0 0 1 1.29.14.9.9 0 0 1 .75 1.07zM61.67 32c-3 0-6.69-2.78-6.86-2.91a.5.5 0 0 1 .6-.8s4.27 3.21 6.86 2.71a2 2 0 0 0 1.43-1 .5.5 0 0 1 .86.5 3 3 0 0 1-2.09 1.5 4 4 0 0 1-.8 0z" class="cls-2"/></svg>